<svg width="16" height="16" viewBox="0 0 16 16" fill="none" xmlns="http://www.w3.org/2000/svg">
<path d="M8.70711 1.5C8.31658 1.10948 7.68342 1.10948 7.29289 1.5L0.646447 8.14645C0.451184 8.34171 0.451184 8.65829 0.646447 8.85355C0.841709 9.04882 1.15829 9.04882 1.35355 8.85355L8 2.20711L14.6464 8.85355C14.8417 9.04882 15.1583 9.04882 15.3536 8.85355C15.5488 8.65829 15.5488 8.34171 15.3536 8.14645L13 5.79289V2.5C13 2.22386 12.7761 2 12.5 2H11.5C11.2239 2 11 2.22386 11 2.5V3.79289L8.70711 1.5Z" fill="#198010"/>
<path d="M8 3.29289L12.712 8.00491C12.6418 8.00165 12.5711 8 12.5 8C10.0147 8 8 10.0147 8 12.5C8 13.4251 8.27914 14.285 8.75777 15H3.5C2.67157 15 2 14.3284 2 13.5V9.29289L8 3.29289Z" fill="#198010"/>
<path d="M12.5 16C14.433 16 16 14.433 16 12.5C16 10.567 14.433 9 12.5 9C10.567 9 9 10.567 9 12.5C9 14.433 10.567 16 12.5 16Z" fill="#198010"/>
<path d="M13.4072 12.1434L12.7041 12.143L12.7047 11.0004L12.0007 12.6699L12.7038 12.6703L12.7031 13.8129L13.4072 12.1434Z" fill="#363333"/>
</svg>
