<svg width="274" height="138" viewBox="0 0 274 138" fill="none" xmlns="http://www.w3.org/2000/svg">
<path opacity="0.2" d="M260.442 171.516C166.791 145.642 -15.892 83.7732 2.58933 43.2829C25.691 -7.32987 134.633 39.7511 139.61 42.5269M139.61 42.5269C144.586 45.3027 236.267 89.1974 272.833 91.5022L272.833 134.428C196.53 110.227 44.5484 53.4551 47.0382 19.9808C48.4282 1.29238 57.4148 -9.46743 79.186 -9.49162M139.61 42.5269C80.8947 16.8562 74.8626 -2.84823 79.186 -9.49162M79.186 -9.49162C96.4108 -9.51076 115.274 -5.93602 128.273 -2.32399L79.186 -9.49162Z" stroke="url(#paint0_linear_227_109)" stroke-width="1.57"/>
<defs>
<linearGradient id="paint0_linear_227_109" x1="159.784" y1="6.11534" x2="125.167" y2="135.254" gradientUnits="userSpaceOnUse">
<stop stop-color="#20D691"/>
<stop offset="1" stop-color="#7AE5B5"/>
</linearGradient>
</defs>
</svg>
