<svg width="370" height="138" viewBox="0 0 370 138" fill="none" xmlns="http://www.w3.org/2000/svg">
<g opacity="0.3">
<path d="M89.2038 -30.6179C88.6572 12.5857 79.4881 98.1739 47.1846 94.8978C6.80526 90.8026 19.5135 38.5898 20.5383 36.1327M20.5383 36.1327C21.5632 33.6756 35.2956 -10.7565 29.9664 -26.7275H58.8673C56.2031 8.83182 44.8075 80.6467 20.5383 83.4314C6.98907 84.9861 -0.759091 77.4229 -4.92472 68.0747M20.5383 36.1327C13.4787 64.3072 0.621432 69.1667 -4.92472 68.0747M-4.92472 68.0747C-8.22047 60.6786 -9.27371 52.1651 -9.18317 46.1657L-4.92472 68.0747Z" stroke="#D6D8D9" stroke-width="1.57"/>
<path d="M89.2038 -30.6179C88.6572 12.5857 79.4881 98.1739 47.1846 94.8978C6.80526 90.8026 19.5135 38.5898 20.5383 36.1327M20.5383 36.1327C21.5632 33.6756 35.2956 -10.7565 29.9664 -26.7275H58.8673C56.2031 8.83182 44.8075 80.6467 20.5383 83.4314C6.98907 84.9861 -0.759091 77.4229 -4.92472 68.0747M20.5383 36.1327C13.4787 64.3072 0.621432 69.1667 -4.92472 68.0747M-4.92472 68.0747C-8.22047 60.6786 -9.27371 52.1651 -9.18317 46.1657L-4.92472 68.0747Z" stroke="url(#paint0_linear_942_135)" stroke-width="1.57"/>
</g>
<g opacity="0.3">
<path d="M294.999 159.607C295.546 116.404 304.715 30.8154 337.019 34.0915C377.398 38.1866 364.69 90.3995 363.665 92.8566M363.665 92.8566C362.64 95.3137 348.908 139.746 354.237 155.717H325.336C328 120.157 339.396 48.3425 363.665 45.5578C377.214 44.0032 384.962 51.5663 389.128 60.9146M363.665 92.8566C370.724 64.6821 383.582 59.8225 389.128 60.9146M389.128 60.9146C392.424 68.3107 393.477 76.8242 393.386 82.8235L389.128 60.9146Z" stroke="#D6D8D9" stroke-width="1.57"/>
<path d="M294.999 159.607C295.546 116.404 304.715 30.8154 337.019 34.0915C377.398 38.1866 364.69 90.3995 363.665 92.8566M363.665 92.8566C362.64 95.3137 348.908 139.746 354.237 155.717H325.336C328 120.157 339.396 48.3425 363.665 45.5578C377.214 44.0032 384.962 51.5663 389.128 60.9146M363.665 92.8566C370.724 64.6821 383.582 59.8225 389.128 60.9146M389.128 60.9146C392.424 68.3107 393.477 76.8242 393.386 82.8235L389.128 60.9146Z" stroke="url(#paint1_linear_942_135)" stroke-width="1.57"/>
</g>
<defs>
<linearGradient id="paint0_linear_942_135" x1="-9.18848" y1="32.1856" x2="89.2038" y2="32.1856" gradientUnits="userSpaceOnUse">
<stop stop-color="#20D691"/>
<stop offset="1" stop-color="#7AE5B5"/>
</linearGradient>
<linearGradient id="paint1_linear_942_135" x1="393.392" y1="96.8036" x2="294.999" y2="96.8036" gradientUnits="userSpaceOnUse">
<stop stop-color="#20D691"/>
<stop offset="1" stop-color="#7AE5B5"/>
</linearGradient>
</defs>
</svg>
