<svg width="370" height="138" viewBox="0 0 370 138" fill="none" xmlns="http://www.w3.org/2000/svg">
<g opacity="0.3">
<path fill-rule="evenodd" clip-rule="evenodd" d="M220.472 52.2172C215.493 50.5274 210.747 48.618 206.237 46.5359C176.968 33.023 157.708 12.2697 148.906 -2.79855L150.437 -3.29403C159.09 11.5208 178.085 31.9973 206.947 45.3222C210.801 47.1013 214.832 48.7536 219.039 50.2483C202.81 27.3636 199.668 2.22232 201.815 -14.1023L203.372 -13.8975C201.253 2.20771 204.394 27.2119 220.708 49.8839C221.01 50.3035 221.317 50.7224 221.628 51.1403C248.484 60.1106 282.279 62.6236 322.782 51.0594C343.342 45.0638 368.076 37.8515 375.459 35.6993L377.372 35.1417L377.587 35.0793L377.628 35.0671L377.628 35.0671L377.636 35.0649L377.644 35.0625C377.65 35.0608 378.779 35.5073 378.374 36.3969L378.364 36.4L378.357 36.4018L378.353 36.4031L378.34 36.4068L378.31 36.4156L378.289 36.4218L378.129 36.4686C377.469 36.6612 375.388 37.2682 371.55 38.3876C363.874 40.6264 349.17 44.915 324.745 52.0381C324.329 52.1595 323.913 52.2795 323.498 52.398C283.614 63.7859 250.056 61.6627 223.114 53.0857C239.848 74.4342 268.91 93.2567 317.257 99.7586C338.937 102.555 365.017 105.92 372.801 106.925L374.818 107.185L374.854 107.19L375.045 107.214L375.089 107.22L375.091 107.22L375.097 107.221L375.104 107.222C375.11 107.223 375.779 108.103 374.91 108.78L374.9 108.779L374.895 108.778L374.889 108.777L374.876 108.776L374.845 108.772L374.822 108.769L374.653 108.747C373.957 108.657 371.763 108.375 367.716 107.853C359.622 106.809 344.116 104.809 318.361 101.488C317.923 101.431 317.485 101.374 317.05 101.315C266.993 94.5835 237.261 74.6955 220.472 52.2172Z" fill="#D4DDEB"/>
<path fill-rule="evenodd" clip-rule="evenodd" d="M220.472 52.2172C215.493 50.5274 210.747 48.618 206.237 46.5359C176.968 33.023 157.708 12.2697 148.906 -2.79855L150.437 -3.29403C159.09 11.5208 178.085 31.9973 206.947 45.3222C210.801 47.1013 214.832 48.7536 219.039 50.2483C202.81 27.3636 199.668 2.22232 201.815 -14.1023L203.372 -13.8975C201.253 2.20771 204.394 27.2119 220.708 49.8839C221.01 50.3035 221.317 50.7224 221.628 51.1403C248.484 60.1106 282.279 62.6236 322.782 51.0594C343.342 45.0638 368.076 37.8515 375.459 35.6993L377.372 35.1417L377.587 35.0793L377.628 35.0671L377.628 35.0671L377.636 35.0649L377.644 35.0625C377.65 35.0608 378.779 35.5073 378.374 36.3969L378.364 36.4L378.357 36.4018L378.353 36.4031L378.34 36.4068L378.31 36.4156L378.289 36.4218L378.129 36.4686C377.469 36.6612 375.388 37.2682 371.55 38.3876C363.874 40.6264 349.17 44.915 324.745 52.0381C324.329 52.1595 323.913 52.2795 323.498 52.398C283.614 63.7859 250.056 61.6627 223.114 53.0857C239.848 74.4342 268.91 93.2567 317.257 99.7586C338.937 102.555 365.017 105.92 372.801 106.925L374.818 107.185L374.854 107.19L375.045 107.214L375.089 107.22L375.091 107.22L375.097 107.221L375.104 107.222C375.11 107.223 375.779 108.103 374.91 108.78L374.9 108.779L374.895 108.778L374.889 108.777L374.876 108.776L374.845 108.772L374.822 108.769L374.653 108.747C373.957 108.657 371.763 108.375 367.716 107.853C359.622 106.809 344.116 104.809 318.361 101.488C317.923 101.431 317.485 101.374 317.05 101.315C266.993 94.5835 237.261 74.6955 220.472 52.2172Z" fill="url(#paint0_linear_942_134)"/>
</g>
<g opacity="0.3">
<path fill-rule="evenodd" clip-rule="evenodd" d="M151.973 85.5629C156.953 87.2526 161.698 89.162 166.208 91.2441C195.478 104.757 214.737 125.51 223.539 140.579L222.009 141.074C213.355 126.259 194.36 105.783 165.498 92.4579C161.644 90.6787 157.614 89.0264 153.406 87.5317C169.635 110.416 172.778 135.558 170.63 151.882L169.073 151.678C171.192 135.572 168.051 110.568 151.737 87.8961C151.435 87.4765 151.129 87.0577 150.817 86.6397C123.962 77.6694 90.166 75.1565 49.6633 86.7207C29.1029 92.7162 4.36916 99.9285 -3.01329 102.081L-4.92645 102.638L-5.14127 102.701L-5.18272 102.713L-5.18304 102.713L-5.1902 102.715L-5.19861 102.718C-5.20473 102.719 -6.33418 102.273 -5.92851 101.383L-5.91826 101.38L-5.91216 101.378L-5.90765 101.377L-5.89499 101.373L-5.8651 101.364L-5.84334 101.358L-5.6834 101.311C-5.02353 101.119 -2.94278 100.512 0.895065 99.3924C8.57085 97.1536 23.2756 92.8651 47.7002 85.742C48.1166 85.6205 48.5323 85.5006 48.9473 85.3821C88.8309 73.9941 122.389 76.1174 149.332 84.6943C132.598 63.3459 103.535 44.5233 55.188 38.0214C33.5083 35.2247 7.42824 31.8602 -0.355728 30.8555L-2.37289 30.5951L-2.4082 30.5903L-2.59938 30.5657L-2.6432 30.5601L-2.64532 30.5597L-2.65138 30.559L-2.65898 30.558C-2.66443 30.5573 -3.33337 29.6774 -2.46439 29.0001L-2.45503 29.0013L-2.44987 29.0019L-2.44412 29.0026L-2.43109 29.0044L-2.39931 29.0084L-2.37659 29.0114L-2.20772 29.033C-1.51183 29.1226 0.682343 29.4055 4.72929 29.9273C12.8233 30.971 28.3291 32.9706 54.0839 36.2923C54.5227 36.3489 54.9599 36.4065 55.3956 36.4651C105.452 43.1965 135.184 63.0845 151.973 85.5629Z" fill="#D4DDEB"/>
<path fill-rule="evenodd" clip-rule="evenodd" d="M151.973 85.5629C156.953 87.2526 161.698 89.162 166.208 91.2441C195.478 104.757 214.737 125.51 223.539 140.579L222.009 141.074C213.355 126.259 194.36 105.783 165.498 92.4579C161.644 90.6787 157.614 89.0264 153.406 87.5317C169.635 110.416 172.778 135.558 170.63 151.882L169.073 151.678C171.192 135.572 168.051 110.568 151.737 87.8961C151.435 87.4765 151.129 87.0577 150.817 86.6397C123.962 77.6694 90.166 75.1565 49.6633 86.7207C29.1029 92.7162 4.36916 99.9285 -3.01329 102.081L-4.92645 102.638L-5.14127 102.701L-5.18272 102.713L-5.18304 102.713L-5.1902 102.715L-5.19861 102.718C-5.20473 102.719 -6.33418 102.273 -5.92851 101.383L-5.91826 101.38L-5.91216 101.378L-5.90765 101.377L-5.89499 101.373L-5.8651 101.364L-5.84334 101.358L-5.6834 101.311C-5.02353 101.119 -2.94278 100.512 0.895065 99.3924C8.57085 97.1536 23.2756 92.8651 47.7002 85.742C48.1166 85.6205 48.5323 85.5006 48.9473 85.3821C88.8309 73.9941 122.389 76.1174 149.332 84.6943C132.598 63.3459 103.535 44.5233 55.188 38.0214C33.5083 35.2247 7.42824 31.8602 -0.355728 30.8555L-2.37289 30.5951L-2.4082 30.5903L-2.59938 30.5657L-2.6432 30.5601L-2.64532 30.5597L-2.65138 30.559L-2.65898 30.558C-2.66443 30.5573 -3.33337 29.6774 -2.46439 29.0001L-2.45503 29.0013L-2.44987 29.0019L-2.44412 29.0026L-2.43109 29.0044L-2.39931 29.0084L-2.37659 29.0114L-2.20772 29.033C-1.51183 29.1226 0.682343 29.4055 4.72929 29.9273C12.8233 30.971 28.3291 32.9706 54.0839 36.2923C54.5227 36.3489 54.9599 36.4065 55.3956 36.4651C105.452 43.1965 135.184 63.0845 151.973 85.5629Z" fill="url(#paint1_linear_942_134)"/>
</g>
<defs>
<linearGradient id="paint0_linear_942_134" x1="148.906" y1="47.3388" x2="371.494" y2="7.9572" gradientUnits="userSpaceOnUse">
<stop stop-color="#20D691"/>
<stop offset="1" stop-color="#7AE5B5"/>
</linearGradient>
<linearGradient id="paint1_linear_942_134" x1="223.539" y1="90.4412" x2="0.951202" y2="129.823" gradientUnits="userSpaceOnUse">
<stop stop-color="#20D691"/>
<stop offset="1" stop-color="#7AE5B5"/>
</linearGradient>
</defs>
</svg>
